<svg width="36" height="36" viewBox="0 0 36 36" fill="none" xmlns="http://www.w3.org/2000/svg">
<g clip-path="url(#clip0_1210_1027)">
<circle cx="18" cy="18" r="18" fill="#ED332A"/>
<path d="M28.7144 14.6277C27.6787 13.6755 26.2459 12.2215 25.079 11.1902L25.01 11.1421C24.8951 11.0503 24.7655 10.9782 24.6267 10.929C21.813 10.4065 8.7181 7.96935 8.46262 8.00029C8.39103 8.01027 8.32261 8.03612 8.26238 8.07592L8.19679 8.12748C8.11602 8.20915 8.05467 8.30782 8.01726 8.41622L8 8.46091V8.70497V8.74278C9.47417 12.8299 15.2949 26.2188 16.4411 29.3606C16.5102 29.5738 16.6413 29.9794 16.8865 30H16.9417C17.0729 30 17.6322 29.2644 17.6322 29.2644C17.6322 29.2644 27.6303 17.192 28.6419 15.9064C28.7728 15.7481 28.8884 15.5777 28.9871 15.3977C29.0123 15.2568 29.0004 15.1119 28.9526 14.9769C28.9048 14.842 28.8227 14.7217 28.7144 14.6277ZM20.1973 16.0336L24.4645 12.5102L26.9675 14.8065L20.1973 16.0336ZM18.5402 15.8033L11.1935 9.80839L23.0801 11.9912L18.5402 15.8033ZM19.203 17.3742L26.7223 16.1677L18.1259 26.48L19.203 17.3742ZM10.1957 10.4065L17.9256 16.9377L16.8071 26.4869L10.1957 10.4065Z" fill="white"/>
</g>
<defs>
<clipPath id="clip0_1210_1027">
<rect width="36" height="36" fill="white"/>
</clipPath>
</defs>
</svg>
